<?xml version="1.0" encoding="UTF-8"?>
<svg xmlns="http://www.w3.org/2000/svg" xmlns:xlink="http://www.w3.org/1999/xlink" width="512" height="512" viewBox="0 0 58 58" version="1.1"><!-- Generator: Sketch 51.3 (57544) - http://www.bohemiancoding.com/sketch --><title>010 - DNA</title><desc>Created with Sketch.</desc><defs/><g id="Page-1" stroke="none" stroke-width="1" fill="none" fill-rule="evenodd"><g id="010---DNA" transform="translate(0.000000, -1.000000)" fill-rule="nonzero"><path d="M40.28,18.72 C35.22,17.93 25.29,17.45 20.87,21.87 C16.45,26.29 16.93,36.22 17.72,41.28 L17.99,42.93 C18.03,43.12 18.31,44.44 18.55,46.44 C18.9863747,49.884212 19.0232862,53.3673138 18.66,56.82 C18.531627,57.8968565 17.7167105,58.7644791 16.65,58.96 C16.4943859,58.9836752 16.3373769,58.9970377 16.18,59 C14.8063419,59.0017916 13.6892417,57.8936282 13.68,56.52 C13.6816364,56.4230521 13.6883121,56.3262547 13.7,56.23 C14.0448751,52.6880616 13.9440883,49.11685 13.4,45.6 L13.12,43.96 C13.08,43.77 12.8,42.44 12.56,40.45 C11.9,34.89 11.52,24.14 17.33,18.33 C23.13,12.53 33.85,12.9 39.42,13.56 L39.45,13.56 C39.5,13.94 39.54,14.29 39.59,14.61 C39.59,14.64 39.6,14.66 39.6,14.69 C39.79,16.05 39.98,16.92 40.01,17.07 L40.05,17.34 L40.28,18.72 Z" id="Shape" fill="#67B9CC"/><path d="M40.07,17.34 L40.05,17.34 C34.68,16.51 24.18,16.01 19.51,20.68 C14.83,25.36 15.34,35.88 16.18,41.24 L16.46,42.98 C16.51,43.18 16.8,44.58 17.06,46.7 C17.5164023,50.347101 17.5533098,54.0344943 17.17,57.69 C17.1215548,58.1543179 16.9411026,58.5950378 16.65,58.96 C16.4943859,58.9836752 16.3373769,58.9970377 16.18,59 C14.8063419,59.0017916 13.6892417,57.8936282 13.68,56.52 C13.6816364,56.4230521 13.6883121,56.3262547 13.7,56.23 C14.0448751,52.6880616 13.9440883,49.11685 13.4,45.6 L13.12,43.96 C13.08,43.77 12.8,42.44 12.56,40.45 C11.9,34.89 11.52,24.14 17.33,18.33 C23.13,12.53 33.85,12.9 39.42,13.56 C39.48,13.97 39.54,14.32 39.59,14.61 C39.59,14.64 39.6,14.66 39.6,14.69 C39.7,15.2 39.76,15.51 39.78,15.6 L40.07,17.34 Z" id="Shape" fill="#9FC9D3"/><path d="M40.67,41.67 C34.86,47.48 24.11,47.1 18.55,46.44 C18.52,46.16 18.48,45.89 18.45,45.63 C18.24,44.09 18.02,43.09 17.99,42.93 L17.72,41.28 C22.78,42.07 32.71,42.55 37.13,38.13 C41.55,33.71 41.07,23.78 40.28,18.72 L40.01,17.07 C39.97,16.88 39.69,15.56 39.45,13.56 C39.0136253,10.115788 38.9767138,6.63268623 39.34,3.18 C39.5059946,1.87405094 40.6563022,0.920592737 41.9703763,0.999753826 C43.2844504,1.07891491 44.3119802,2.16356814 44.32,3.48 C44.3183636,3.57694795 44.3116879,3.67374526 44.3,3.77 C43.9551249,7.31193837 44.0559117,10.88315 44.6,14.4 L44.88,16.04 C44.92,16.23 45.2,17.56 45.44,19.55 C46.1,25.11 46.48,35.86 40.67,41.67 Z" id="Shape" fill="#4482C3"/><path d="M38.67,40.67 C33.47,45.87 24.3,46.11 18.45,45.63 C18.24,44.09 18.02,43.09 17.99,42.93 L17.72,41.28 C22.78,42.07 32.71,42.55 37.13,38.13 C41.55,33.71 41.07,23.78 40.28,18.72 L40.01,17.07 C39.97,16.88 39.69,15.56 39.45,13.56 C39.0136253,10.115788 38.9767138,6.63268623 39.34,3.18 C39.4924596,1.92863984 40.5594205,0.990746746 41.82,1 C42.1426064,1.42613567 42.318076,1.94552571 42.32,2.48 C42.3183636,2.57694795 42.3116879,2.67374526 42.3,2.77 C41.9551249,6.31193837 42.0559117,9.88314997 42.6,13.4 L42.88,15.04 C42.92,15.23 43.2,16.56 43.44,18.55 C44.1,24.11 44.48,34.86 38.67,40.67 Z" id="Shape" fill="#3B97D3"/><path d="M58,17.18 C58.0025657,17.7904055 57.7820836,18.3807285 57.38,18.84 C56.9788775,19.2963114 56.423311,19.58834 55.82,19.66 C52.3673109,20.0232255 48.8842161,19.9863141 45.44,19.55 C45.4,19.23 45.36,18.93 45.32,18.65 C45.12,17.16 44.91,16.2 44.88,16.04 L44.6,14.4 C48.1168545,14.944039 51.6880599,15.0448256 55.23,14.7 C55.7370609,14.6419873 56.2497707,14.7396464 56.7,14.98 L56.7,14.99 C57.5017563,15.4267782 58.0005119,16.2669895 58,17.18 Z" id="Shape" fill="#67B9CC"/><path d="M57,16.18 C57.0025657,16.7904055 56.7820836,17.3807285 56.38,17.84 C55.9788775,18.2963114 55.423311,18.58834 54.82,18.66 C51.6619556,18.9938877 48.4773345,18.9905355 45.32,18.65 C45.12,17.16 44.91,16.2 44.88,16.04 L44.6,14.4 C48.1168545,14.944039 51.6880599,15.0448256 55.23,14.7 C55.7370609,14.6419873 56.2497707,14.7396464 56.7,14.98 L56.7,14.99 C56.8961215,15.3560444 56.9991508,15.7647273 57,16.18 Z" id="Shape" fill="#9FC9D3"/><path d="M13.4,45.6 C9.88314547,45.055961 6.31194007,44.9551744 2.77,45.3 C1.74464213,45.4093184 0.757083762,44.8790118 0.281838434,43.9638883 C-0.193406894,43.0487647 -0.0591896102,41.9358935 0.62,41.16 C1.02112247,40.7036886 1.57668898,40.41166 2.18,40.34 C5.63268909,39.9767745 9.11578387,40.0136859 12.56,40.45 C12.8,42.44 13.08,43.77 13.12,43.96 L13.4,45.6 Z" id="Shape" fill="#3B97D3"/><path d="M29,39 C28.4477153,39 28,38.5522847 28,38 L28,22 C28,21.4477153 28.4477153,21 29,21 C29.5522847,21 30,21.4477153 30,22 L30,38 C30,38.5522847 29.5522847,39 29,39 Z" id="Shape" fill="#4482C3"/><path d="M25,39 C24.4477153,39 24,38.5522847 24,38 L24,24 C24,23.4477153 24.4477153,23 25,23 C25.5522847,23 26,23.4477153 26,24 L26,38 C26,38.5522847 25.5522847,39 25,39 Z" id="Shape" fill="#4482C3"/><path d="M21,38 C20.4477153,38 20,37.5522847 20,37 L20,30 C20,29.4477153 20.4477153,29 21,29 C21.5522847,29 22,29.4477153 22,30 L22,37 C22,37.5522847 21.5522847,38 21,38 Z" id="Shape" fill="#4482C3"/><path d="M33,37 C32.4477153,37 32,36.5522847 32,36 L32,22 C32,21.4477153 32.4477153,21 33,21 C33.5522847,21 34,21.4477153 34,22 L34,36 C34,36.5522847 33.5522847,37 33,37 Z" id="Shape" fill="#4482C3"/><path d="M37,32 C36.4477153,32 36,31.5522847 36,31 L36,23 C36,22.4477153 36.4477153,22 37,22 C37.5522847,22 38,22.4477153 38,23 L38,31 C38,31.5522847 37.5522847,32 37,32 Z" id="Shape" fill="#4482C3"/></g></g></svg>
