<?xml version="1.0" encoding="iso-8859-1"?>
<!-- Generator: Adobe Illustrator 19.0.0, SVG Export Plug-In . SVG Version: 6.00 Build 0)  -->
<svg version="1.1" id="Layer_1" xmlns="http://www.w3.org/2000/svg" xmlns:xlink="http://www.w3.org/1999/xlink" x="0px" y="0px"
	 viewBox="0 0 512 512" style="enable-background:new 0 0 512 512;" xml:space="preserve">
<path style="fill:#E88158;" d="M333.012,32.373V281.95c0,42.259-33.558,77.524-75.812,78.169
	c-43.009,0.657-78.207-34.138-78.207-77.001V32.373C178.994,14.494,164.499,0,146.619,0H59.495
	C41.616,0,27.121,14.494,27.121,32.373v250.745C27.121,409.527,129.595,512,256.003,512l0,0
	c126.408,0,228.881-102.473,228.881-228.881V32.373C484.884,14.494,470.39,0,452.511,0h-87.124
	C347.507,0,333.012,14.494,333.012,32.373z"/>
<g>
	<path style="fill:#D37250;" d="M284.682,360.119c42.255-0.645,75.812-35.91,75.812-78.169V32.373
		C360.494,14.494,374.988,0,392.869,0h-27.482c-17.88,0-32.375,14.494-32.375,32.373V281.95c0,37.994-27.13,70.317-63.312,76.927
		C274.554,359.759,279.56,360.197,284.682,360.119z"/>
	<path style="fill:#D37250;" d="M54.603,283.119V32.373C54.603,14.494,69.097,0,86.976,0H59.495
		C41.616,0,27.121,14.494,27.121,32.373v250.745C27.121,409.527,129.595,512,256.003,512l0,0c4.614,0,9.193-0.153,13.741-0.422
		C149.736,504.47,54.603,404.911,54.603,283.119z"/>
</g>
<g>
	<path style="fill:#5DACD8;" d="M178.986,32.37v54.414H27.114V32.37C27.114,14.493,41.622,0,59.499,0h87.117
		C164.493,0,178.986,14.493,178.986,32.37z"/>
	<path style="fill:#5DACD8;" d="M484.886,86.784v196.335c0,63.208-25.616,120.427-67.041,161.838
		c-41.41,41.425-98.63,67.041-161.838,67.041V360.139c0.391,0,0.796-0.014,1.186-0.014c4.281-0.058,8.476-0.492,12.555-1.244
		c36.16-6.625,63.266-38.952,63.266-76.934V86.784H484.886z"/>
</g>
<g>
	<path style="fill:#4C9CBF;" d="M360.495,86.784v195.163c0,42.264-33.556,77.527-75.82,78.178
		c-5.106,0.072-10.096-0.362-14.927-1.244c36.16-6.625,63.266-38.952,63.266-76.934V86.784H360.495z"/>
	<path style="fill:#4C9CBF;" d="M86.981,0C69.103,0,54.596,14.493,54.596,32.37v54.414H27.114V32.37
		C27.114,14.493,41.622,0,59.499,0H86.981z"/>
</g>
<g>
	<polygon style="fill:#F4BD64;" points="97.38,204.092 105.43,127.518 61.09,231.648 106.124,232.698 98.034,309.277 
		142.35,205.195 	"/>
	<polygon style="fill:#F4BD64;" points="405.946,204.092 413.995,127.518 369.655,231.648 414.689,232.698 406.601,309.277 
		450.916,205.195 	"/>
</g>
<g>
</g>
<g>
</g>
<g>
</g>
<g>
</g>
<g>
</g>
<g>
</g>
<g>
</g>
<g>
</g>
<g>
</g>
<g>
</g>
<g>
</g>
<g>
</g>
<g>
</g>
<g>
</g>
<g>
</g>
</svg>
