<svg height="511pt" viewBox="1 -133 511.999 511" width="511pt" xmlns="http://www.w3.org/2000/svg"><path d="m51.882812 20.117188v8.066406c0 17.453125 14.144532 31.597656 31.585938 31.597656h18.378906v-18.378906c0-17.441406-14.144531-31.585938-31.597656-31.585938h-8.066406c-2.84375 0-5.417969 1.15625-7.28125 3.019532-1.867188 1.855468-3.019532 4.429687-3.019532 7.28125zm0 0" fill="#5be167"/><path d="m51.882812 20.117188v8.066406c0 17.453125 14.144532 31.597656 31.585938 31.597656h18.378906l-46.945312-46.945312c-1.867188 1.855468-3.019532 4.429687-3.019532 7.28125zm0 0" fill="#1fc974"/><path d="m101.847656 103.976562c-4.269531 0-7.726562-3.457031-7.726562-7.726562v-88.023438c0-4.269531 3.457031-7.726562 7.726562-7.726562 4.265625 0 7.726563 3.457031 7.726563 7.726562v88.023438c0 4.269531-3.460938 7.726562-7.726563 7.726562zm0 0" fill="#e89069"/><path d="m140.355469 106.484375-2.957031 15.058594-4.761719 24.210937-3.246094 16.523438c-.945313 4.820312-5.191406 8.3125-10.113281 8.3125h-34.863282c-4.921874 0-9.15625-3.492188-10.105468-8.3125l-3.246094-16.523438-4.769531-24.210937-2.957031-15.058594c-1.257813-6.367187 3.617187-12.289063 10.105468-12.289063h56.804688c6.492187 0 11.363281 5.921876 10.109375 12.289063zm0 0" fill="#fd9e28"/><path d="m140.351562 106.488281-2.957031 15.058594-4.757812 24.210937-3.246094 16.523438c-.949219 4.820312-5.191406 8.3125-10.117187 8.3125h-11.25c4.925781 0 9.171874-3.492188 10.117187-8.3125l3.246094-16.523438 4.757812-24.210937 2.957031-15.058594c1.257813-6.367187-3.617187-12.292969-10.105468-12.292969h11.25c6.488281 0 11.363281 5.925782 10.105468 12.292969zm0 0" fill="#fd8724"/><path d="m137.394531 121.546875-4.757812 24.210937h-61.574219l-4.769531-24.210937zm0 0" fill="#bddff4"/><path d="m151.808594 31.066406v8.066406c0 17.453126-14.144532 31.597657-31.585938 31.597657h-12.199218c-1.707032 0-3.253907-.691407-4.367188-1.8125-1.121094-1.125-1.8125-2.667969-1.8125-4.371094v-12.195313c0-17.449218 14.144531-31.585937 31.585938-31.585937h8.078124c2.839844 0 5.417969 1.15625 7.28125 3.019531 1.863282 1.851563 3.019532 4.429688 3.019532 7.28125zm0 0" fill="#5be167"/><path d="m151.808594 31.066406v8.066406c0 17.453126-14.144532 31.597657-31.585938 31.597657h-12.199218c-1.707032 0-3.253907-.691407-4.367188-1.8125l45.132812-45.132813c1.863282 1.851563 3.019532 4.429688 3.019532 7.28125zm0 0" fill="#1fc974"/><path d="m206.035156 20.117188v8.066406c0 17.453125 14.144532 31.597656 31.585938 31.597656h18.378906v-18.378906c0-17.441406-14.144531-31.585938-31.597656-31.585938h-8.0625c-2.84375 0-5.421875 1.15625-7.285156 3.019532-1.863282 1.855468-3.019532 4.429687-3.019532 7.28125zm0 0" fill="#5be167"/><path d="m206.035156 20.117188v8.066406c0 17.453125 14.144532 31.597656 31.585938 31.597656h18.378906l-46.945312-46.945312c-1.863282 1.855468-3.019532 4.429687-3.019532 7.28125zm0 0" fill="#1fc974"/><path d="m256 103.976562c-4.265625 0-7.726562-3.457031-7.726562-7.726562v-88.023438c0-4.269531 3.460937-7.726562 7.726562-7.726562 4.269531 0 7.726562 3.457031 7.726562 7.726562v88.023438c0 4.269531-3.457031 7.726562-7.726562 7.726562zm0 0" fill="#e89069"/><path d="m294.507812 106.484375-2.957031 15.058594-4.761719 24.210937-3.242187 16.523438c-.949219 4.820312-5.195313 8.3125-10.117187 8.3125h-34.863282c-4.921875 0-9.15625-3.492188-10.105468-8.3125l-3.242188-16.523438-4.773438-24.210937-2.957031-15.058594c-1.253906-6.367187 3.617188-12.289063 10.109375-12.289063h56.800782c6.492187 0 11.367187 5.921876 10.109374 12.289063zm0 0" fill="#fd9e28"/><path d="m294.507812 106.488281-2.957031 15.058594-4.757812 24.210937-3.246094 16.523438c-.949219 4.820312-5.191406 8.3125-10.117187 8.3125h-11.257813c4.921875 0 9.167969-3.492188 10.113281-8.3125l3.246094-16.523438 4.757812-24.210937 2.957032-15.058594c1.257812-6.367187-3.613282-12.292969-10.105469-12.292969h11.261719c6.488281 0 11.363281 5.925782 10.105468 12.292969zm0 0" fill="#fd8724"/><path d="m291.550781 121.546875-4.757812 24.210937h-61.574219l-4.769531-24.210937zm0 0" fill="#bddff4"/><path d="m305.964844 31.066406v8.066406c0 17.453126-14.144532 31.597657-31.585938 31.597657h-12.195312c-1.710938 0-3.257813-.691407-4.371094-1.8125-1.121094-1.125-1.8125-2.667969-1.8125-4.371094v-12.195313c0-17.449218 14.144531-31.585937 31.585938-31.585937h8.078124c2.84375 0 5.417969 1.15625 7.28125 3.019531 1.863282 1.851563 3.019532 4.429688 3.019532 7.28125zm0 0" fill="#5be167"/><path d="m305.964844 31.066406v8.066406c0 17.453126-14.144532 31.597657-31.585938 31.597657h-12.195312c-1.710938 0-3.257813-.691407-4.371094-1.8125l45.132812-45.132813c1.863282 1.851563 3.019532 4.429688 3.019532 7.28125zm0 0" fill="#1fc974"/><path d="m360.191406 20.117188v8.066406c0 17.453125 14.144532 31.597656 31.585938 31.597656h18.375v-18.378906c0-17.441406-14.140625-31.585938-31.59375-31.585938h-8.066406c-2.84375 0-5.417969 1.15625-7.28125 3.019532-1.867188 1.855468-3.019532 4.429687-3.019532 7.28125zm0 0" fill="#5be167"/><path d="m360.191406 20.117188v8.066406c0 17.453125 14.144532 31.597656 31.585938 31.597656h18.375l-46.941406-46.945312c-1.867188 1.855468-3.019532 4.429687-3.019532 7.28125zm0 0" fill="#1fc974"/><path d="m410.15625 103.976562c-4.269531 0-7.726562-3.457031-7.726562-7.726562v-88.023438c0-4.269531 3.457031-7.726562 7.726562-7.726562 4.265625 0 7.726562 3.457031 7.726562 7.726562v88.023438c0 4.269531-3.460937 7.726562-7.726562 7.726562zm0 0" fill="#e89069"/><path d="m448.660156 106.484375-2.957031 15.058594-4.757813 24.210937-3.246093 16.523438c-.949219 4.820312-5.191407 8.3125-10.117188 8.3125h-34.859375c-4.925781 0-9.160156-3.492188-10.105468-8.3125l-3.246094-16.523438-4.769532-24.210937-2.957031-15.058594c-1.257812-6.367187 3.617188-12.289063 10.105469-12.289063h56.804688c6.492187 0 11.363281 5.921876 10.105468 12.289063zm0 0" fill="#fd9e28"/><path d="m448.664062 106.488281-2.957031 15.058594-4.757812 24.210937-3.246094 16.523438c-.949219 4.820312-5.191406 8.3125-10.117187 8.3125h-11.257813c4.921875 0 9.167969-3.492188 10.113281-8.3125l3.246094-16.523438 4.757812-24.210937 2.957032-15.058594c1.257812-6.367187-3.613282-12.292969-10.105469-12.292969h11.261719c6.492187 0 11.363281 5.925782 10.105468 12.292969zm0 0" fill="#fd8724"/><path d="m445.707031 121.546875-4.757812 24.210937h-61.574219l-4.769531-24.210937zm0 0" fill="#bddff4"/><path d="m445.707031 121.546875-4.757812 24.210937h-11.261719l4.761719-24.210937zm0 0" fill="#9cc6db"/><path d="m460.121094 31.066406v8.066406c0 17.453126-14.144532 31.597657-31.585938 31.597657h-12.195312c-1.710938 0-3.257813-.691407-4.371094-1.8125-1.121094-1.125-1.8125-2.667969-1.8125-4.371094v-12.195313c0-17.449218 14.132812-31.585937 31.585938-31.585937h8.078124c2.839844 0 5.417969 1.15625 7.28125 3.019531 1.863282 1.851563 3.019532 4.429688 3.019532 7.28125zm0 0" fill="#5be167"/><path d="m460.121094 31.066406v8.066406c0 17.453126-14.144532 31.597657-31.585938 31.597657h-12.195312c-1.710938 0-3.257813-.691407-4.371094-1.8125l45.132812-45.132813c1.863282 1.851563 3.019532 4.429688 3.019532 7.28125zm0 0" fill="#1fc974"/><path d="m473.308594 245.914062h-434.617188c-21.367187 0-38.691406-17.324218-38.691406-38.691406 0-21.367187 17.324219-38.691406 38.691406-38.691406h434.617188c21.367187 0 38.691406 17.324219 38.691406 38.691406 0 21.367188-17.324219 38.691406-38.691406 38.691406zm0 0" fill="#4e7693"/><path d="m463.769531 214.949219h-415.539062c-4.265625 0-7.722657-3.457031-7.722657-7.726563 0-4.265625 3.457032-7.726562 7.722657-7.726562h415.539062c4.265625 0 7.726563 3.460937 7.726563 7.726562 0 4.269532-3.460938 7.726563-7.726563 7.726563zm0 0" fill="#e3f4ff"/><g fill="#9cc6db"><path d="m70.492188 225.566406c-4.265626 0-7.726563-3.457031-7.726563-7.726562v-21.234375c0-4.269531 3.460937-7.726563 7.726563-7.726563 4.269531 0 7.726562 3.460938 7.726562 7.726563v21.234375c0 4.269531-3.457031 7.726562-7.726562 7.726562zm0 0"/><path d="m441.507812 225.566406c-4.269531 0-7.726562-3.457031-7.726562-7.726562v-21.234375c0-4.269531 3.457031-7.726563 7.726562-7.726563 4.265626 0 7.726563 3.460938 7.726563 7.726563v21.234375c0 4.269531-3.460937 7.726562-7.726563 7.726562zm0 0"/><path d="m137.394531 121.546875-4.757812 24.210937h-11.25l4.757812-24.210937zm0 0"/><path d="m291.550781 121.546875-4.757812 24.210937h-11.261719l4.761719-24.210937zm0 0"/></g></svg>